<svg width="17" height="17" viewBox="0 0 17 17" fill="none" xmlns="http://www.w3.org/2000/svg">
<path fill-rule="evenodd" clip-rule="evenodd" d="M8.48627 0.166337C8.46457 0.163886 8.44288 0.161144 8.42118 0.1584C8.35433 0.149947 8.28736 0.141479 8.21942 0.141479C8.20532 0.141479 8.1914 0.143368 8.1775 0.145252L8.1775 0.145253L8.1775 0.145253C8.16547 0.146883 8.15348 0.14851 8.14142 0.148908C8.11965 0.14851 8.098 0.146878 8.07634 0.145246C8.05137 0.143364 8.02637 0.141479 8.00113 0.141479C3.58999 0.141479 0.00112915 3.73062 0.00112915 8.14148C0.00112915 12.5529 3.58999 16.1415 8.00113 16.1415C8.02649 16.1415 8.05161 16.1397 8.07666 16.1378L8.07671 16.1378C8.0982 16.1363 8.11963 16.1347 8.14113 16.1343C8.15332 16.1347 8.16538 16.1363 8.17743 16.1379L8.17746 16.1379C8.1914 16.1397 8.20532 16.1415 8.21942 16.1415C8.29093 16.1415 8.36136 16.1325 8.43171 16.1235C8.4499 16.1211 8.46808 16.1188 8.48627 16.1166C12.6714 15.8641 16.0011 12.3892 16.0011 8.14148C16.0011 3.89377 12.6714 0.419194 8.48627 0.166337ZM5.60628 1.56882C4.79599 2.50425 4.1377 3.84739 3.77628 5.43368C2.65228 5.31168 1.97399 5.16968 1.70056 5.10397C2.49488 3.46376 3.89527 2.19624 5.60628 1.56882ZM1.322 6.03575C1.112 6.70032 0.997711 7.40775 0.997711 8.14147C0.998894 9.00342 1.1603 9.85765 1.47371 10.6606C1.794 10.5832 2.50771 10.4349 3.66628 10.3092C3.54343 9.6209 3.47114 8.89661 3.47114 8.14147C3.47176 7.56467 3.51253 6.98861 3.59314 6.41747C2.24257 6.26747 1.51285 6.08718 1.322 6.03575ZM1.90914 11.5841C2.27143 11.5069 2.92057 11.3901 3.88 11.2898C4.25743 12.6864 4.87143 13.8667 5.60686 14.7147C4.04217 14.1422 2.73157 13.0327 1.90857 11.5841H1.90914ZM4.79169 11.2044C5.30912 13.2084 6.5714 14.6949 7.42854 15.0538V11.0995C6.5714 11.1098 5.53569 11.1492 4.79169 11.2044ZM7.42859 10.1035C6.57144 10.1144 5.40487 10.1584 4.60944 10.2201C4.50001 9.56008 4.46887 8.8618 4.46887 8.14151C4.46887 7.58151 4.47973 7.03637 4.54744 6.5098C5.35516 6.5738 6.57144 6.6198 7.42859 6.63123V10.1032V10.1035ZM4.68454 5.52238C5.45083 5.58095 6.5714 5.62438 7.42854 5.63495V5.63467V1.22952C6.5714 1.61467 5.16311 3.29524 4.68454 5.52238ZM14.276 5.04913C14.1197 5.09713 13.4866 5.27371 12.2343 5.42199C11.9517 3.91913 11.4417 2.63856 10.7766 1.71399C12.3014 2.37485 13.5414 3.56456 14.276 5.04885V5.04913ZM11.3106 5.52094C10.8411 3.26609 9.42855 1.57037 8.57141 1.21466V5.63523C9.42855 5.62466 10.5566 5.58094 11.3106 5.52094ZM8.57141 6.63112C9.42855 6.61998 10.63 6.57284 11.4277 6.50655C11.4934 7.03398 11.51 7.57998 11.51 8.14141C11.51 8.86255 11.4843 9.56198 11.378 10.2228C10.5926 10.1594 9.42855 10.1137 8.57141 10.1034V6.63112ZM8.57141 11.0995V15.0687V15.0689C9.42855 14.7369 10.6977 13.2375 11.2063 11.2067C10.472 11.1501 9.42855 11.1098 8.57141 11.0995ZM10.7766 14.5694C11.376 13.7363 11.8534 12.618 12.148 11.3046C13.1332 11.418 13.7537 11.55 14.0666 11.6289C13.3132 12.9362 12.1599 13.967 10.7766 14.5694ZM12.3851 6.40661C12.5354 7.70843 12.5153 9.0243 12.3251 10.3209L12.3254 10.3206C13.5414 10.4635 14.2331 10.6355 14.5082 10.7158C14.8254 9.91804 15.0054 9.0509 15.0054 8.14147C15.005 7.24254 14.8303 6.35222 14.4911 5.51976L14.652 5.97404C14.6068 5.99004 13.9251 6.22176 12.3851 6.40661Z" fill="white"/>
</svg>
